<?xml version="1.0" encoding="utf-8"?>
<!-- Generator: Adobe Illustrator 23.1.1, SVG Export Plug-In . SVG Version: 6.00 Build 0)  -->
<svg version="1.1" id="Layer_1" xmlns="http://www.w3.org/2000/svg" xmlns:xlink="http://www.w3.org/1999/xlink" x="0px" y="0px"
	 viewBox="0 0 90 33" style="enable-background:new 0 0 90 33;" xml:space="preserve">
<style type="text/css">
	.st0{fill:#F2F4F7;}
	.st1{fill:none;stroke:#DA362C;stroke-width:2;stroke-linecap:square;}
</style>
<rect id="ember1218" class="st0" width="90" height="33"/>
<path class="st1" d="M39,28.7l6-6l6,6"/>
<g id="ember2016" transform="translate(1200,900)">
	<path id="path18_1_" d="M-1188.5-890.1v1.7h-5.3v-7.8h2v6.2H-1188.5z"/>
	<path id="path20_1_" d="M-1185.6-894.7v1.6h3.7v1.6h-3.7v1.6h4.3v1.6h-6.3v-7.8h6.1v1.6H-1185.6L-1185.6-894.7z"/>
	<path id="path22_1_" d="M-1177-896.3c0.6,0,1.1,0.1,1.7,0.2c0.5,0.2,1,0.4,1.4,0.6l-0.8,1.6c-0.4-0.2-0.9-0.4-1.3-0.6
		c-0.5-0.2-0.9-0.2-1.2-0.2c-0.3,0-0.5,0-0.6,0.1c-0.2,0.1-0.2,0.2-0.2,0.4c0,0.2,0.1,0.4,0.4,0.6c0.2,0.1,0.6,0.3,1.1,0.4
		c0.5,0.2,1,0.3,1.3,0.5c0.4,0.2,0.7,0.4,0.9,0.7s0.4,0.7,0.4,1.3c0,0.5-0.1,0.9-0.4,1.3c-0.3,0.4-0.7,0.6-1.1,0.8
		c-0.5,0.2-1,0.3-1.6,0.3c-0.6,0-1.3-0.1-1.9-0.3c-0.6-0.2-1.2-0.5-1.7-0.9l0.8-1.5c0.4,0.3,0.9,0.6,1.4,0.8c0.5,0.2,1,0.3,1.4,0.3
		c0.3,0,0.6-0.1,0.7-0.2c0.2-0.1,0.3-0.3,0.3-0.5c0-0.3-0.1-0.4-0.4-0.6c-0.3-0.1-0.6-0.3-1.2-0.4c-0.5-0.1-1-0.3-1.3-0.4
		c-0.3-0.1-0.6-0.4-0.9-0.7c-0.2-0.3-0.4-0.7-0.4-1.2c0-0.5,0.1-0.9,0.4-1.2c0.3-0.4,0.6-0.6,1.1-0.8
		C-1178.2-896.2-1177.6-896.3-1177-896.3z"/>
	<path id="path24_1_" d="M-1169.8-896.3c0.6,0,1.1,0.1,1.7,0.2c0.5,0.2,1,0.4,1.4,0.6l-0.8,1.6c-0.4-0.2-0.9-0.4-1.3-0.6
		c-0.5-0.2-0.9-0.2-1.2-0.2c-0.3,0-0.5,0-0.6,0.1c-0.2,0.1-0.2,0.2-0.2,0.4c0,0.2,0.1,0.4,0.4,0.6c0.2,0.1,0.6,0.3,1.1,0.4
		c0.5,0.2,1,0.3,1.3,0.5s0.7,0.4,0.9,0.7s0.4,0.7,0.4,1.3c0,0.5-0.1,0.9-0.4,1.3c-0.3,0.4-0.7,0.6-1.1,0.8c-0.5,0.2-1,0.3-1.6,0.3
		c-0.6,0-1.3-0.1-1.9-0.3c-0.6-0.2-1.2-0.5-1.7-0.9l0.8-1.5c0.4,0.3,0.9,0.6,1.4,0.8c0.5,0.2,1,0.3,1.4,0.3c0.3,0,0.6-0.1,0.7-0.2
		c0.2-0.1,0.3-0.3,0.3-0.5c0-0.3-0.1-0.4-0.4-0.6c-0.3-0.1-0.6-0.3-1.2-0.4c-0.5-0.1-1-0.3-1.3-0.4c-0.3-0.1-0.6-0.4-0.9-0.7
		c-0.2-0.3-0.4-0.7-0.4-1.2c0-0.5,0.1-0.9,0.4-1.2c0.3-0.4,0.6-0.6,1.1-0.8C-1170.9-896.2-1170.4-896.3-1169.8-896.3L-1169.8-896.3z
		"/>
	<path id="path26_1_" d="M-1159.6-896.2c0.8,0,1.5,0.2,2.2,0.5c0.6,0.3,1.1,0.8,1.5,1.4c0.4,0.6,0.5,1.3,0.5,2c0,0.8-0.2,1.4-0.5,2
		c-0.4,0.6-0.9,1.1-1.5,1.4s-1.4,0.5-2.2,0.5h-3.3v-7.8H-1159.6z M-1161-890h1.4c0.4,0,0.8-0.1,1.1-0.3s0.6-0.5,0.7-0.8
		c0.2-0.4,0.3-0.8,0.3-1.2s-0.1-0.9-0.3-1.2c-0.2-0.4-0.4-0.6-0.8-0.8c-0.3-0.2-0.7-0.3-1.1-0.3h-1.3C-1161-894.7-1161-890-1161-890
		z"/>
	<path id="path28_1_" d="M-1152.3-894.7v1.6h3.7v1.6h-3.7v1.6h4.3v1.6h-6.3v-7.8h6.1v1.6H-1152.3L-1152.3-894.7z"/>
	<path id="path30_1_" d="M-1143.2-894.6v6.2h-2v-6.2h-2.3v-1.6h6.7v1.6H-1143.2z"/>
	<path id="path32_1_" d="M-1139-889.8l-0.6,1.4h-2.1l3.4-7.8h2.1l3.3,7.8h-2.1l-0.6-1.4H-1139z M-1137.3-894.3l-1.1,2.9h2.3
		L-1137.3-894.3z"/>
	<path id="path34_1_" d="M-1132.2-888.4v-7.8h2v7.8H-1132.2z"/>
	<path id="path36_1_" d="M-1123.3-890.1v1.7h-5.3v-7.8h2v6.2H-1123.3z"/>
	<path id="path38_1_" d="M-1119.3-896.3c0.6,0,1.1,0.1,1.7,0.2c0.5,0.2,1,0.4,1.4,0.6l-0.8,1.6c-0.4-0.2-0.9-0.4-1.3-0.6
		c-0.5-0.2-0.9-0.2-1.2-0.2c-0.3,0-0.5,0-0.6,0.1c-0.2,0.1-0.2,0.2-0.2,0.4c0,0.2,0.1,0.4,0.4,0.6c0.2,0.1,0.6,0.3,1.1,0.4
		c0.5,0.2,1,0.3,1.3,0.5c0.4,0.2,0.7,0.4,0.9,0.7s0.4,0.7,0.4,1.3c0,0.5-0.1,0.9-0.4,1.3c-0.3,0.4-0.7,0.6-1.1,0.8
		c-0.5,0.2-1,0.3-1.6,0.3c-0.6,0-1.3-0.1-1.9-0.3c-0.6-0.2-1.2-0.5-1.7-0.9l0.8-1.5c0.4,0.3,0.9,0.6,1.4,0.8c0.5,0.2,1,0.3,1.4,0.3
		c0.3,0,0.6-0.1,0.7-0.2c0.2-0.1,0.3-0.3,0.3-0.5c0-0.3-0.1-0.4-0.4-0.6c-0.3-0.1-0.6-0.3-1.2-0.4c-0.5-0.1-1-0.3-1.3-0.4
		c-0.3-0.1-0.6-0.4-0.9-0.7c-0.2-0.3-0.4-0.7-0.4-1.2c0-0.5,0.1-0.9,0.4-1.2c0.3-0.4,0.6-0.6,1.1-0.8
		C-1120.5-896.2-1119.9-896.3-1119.3-896.3L-1119.3-896.3z"/>
</g>
</svg>
