<?xml version="1.0" encoding="utf-8"?>
<!-- Generator: Adobe Illustrator 23.1.1, SVG Export Plug-In . SVG Version: 6.00 Build 0)  -->
<svg version="1.1" id="Layer_1" xmlns="http://www.w3.org/2000/svg" xmlns:xlink="http://www.w3.org/1999/xlink" x="0px" y="0px"
	 viewBox="0 0 90 33" style="enable-background:new 0 0 90 33;" xml:space="preserve">
<style type="text/css">
	.st0{fill:#F2F4F7;}
	.st1{fill:none;stroke:#DA362C;stroke-width:2;stroke-linecap:square;}
</style>
<g>
	<rect id="ember1218" class="st0" width="90" height="33"/>
	<path class="st1" d="M51,22.7l-6,6l-6-6"/>
	<g id="ember1352" transform="translate(1200,900)">
		<path id="path18" d="M-1190.6-888.4l0-5.1l-1.9,4.4h-1.3l-1.9-4.4v5.1h-1.8v-7.9h2.2l2.1,4.7l2.1-4.7h2.2v7.9H-1190.6z"/>
		<path id="path20" d="M-1183.5-896.4c0.8,0,1.5,0.2,2.2,0.5c0.7,0.3,1.2,0.8,1.5,1.4c0.4,0.6,0.6,1.3,0.6,2c0,0.8-0.2,1.5-0.6,2.1
			c-0.4,0.6-0.9,1.1-1.5,1.5c-0.7,0.4-1.4,0.5-2.2,0.5c-0.8,0-1.5-0.2-2.2-0.5s-1.2-0.8-1.5-1.5c-0.4-0.6-0.6-1.3-0.6-2.1
			c0-0.8,0.2-1.4,0.6-2.1c0.4-0.6,0.9-1.1,1.5-1.4C-1185-896.2-1184.3-896.4-1183.5-896.4L-1183.5-896.4z M-1183.4-894.7
			c-0.4,0-0.8,0.1-1.1,0.3c-0.3,0.2-0.6,0.5-0.8,0.8c-0.2,0.4-0.3,0.8-0.3,1.2c0,0.4,0.1,0.8,0.3,1.2c0.2,0.4,0.5,0.6,0.8,0.8
			c0.3,0.2,0.7,0.3,1.1,0.3c0.4,0,0.8-0.1,1.1-0.3c0.3-0.2,0.6-0.5,0.8-0.8c0.2-0.4,0.3-0.8,0.3-1.2c0-0.4-0.1-0.8-0.3-1.2
			c-0.2-0.4-0.5-0.6-0.8-0.8C-1182.7-894.6-1183-894.7-1183.4-894.7z"/>
		<path id="path22" d="M-1174.5-890.6L-1174.5-890.6h-1.6v2.2h-2v-7.9h3.5c1,0,1.9,0.2,2.4,0.7c0.6,0.5,0.9,1.2,0.9,2
			c0,0.6-0.1,1.1-0.4,1.6c-0.2,0.4-0.6,0.8-1.1,1l1.7,2.6h-2.3L-1174.5-890.6L-1174.5-890.6z M-1174.6-892.2c0.4,0,0.8-0.1,1-0.3
			c0.2-0.2,0.4-0.5,0.4-1c0-0.4-0.1-0.7-0.4-0.9c-0.2-0.2-0.6-0.3-1-0.3h-1.5v2.5H-1174.6z"/>
		<path id="path24" d="M-1167.9-894.7v1.6h3.8v1.6h-3.8v1.6h4.3v1.6h-6.3v-7.9h6.2v1.6H-1167.9z"/>
		<path id="path26" d="M-1156.3-896.3c0.8,0,1.5,0.2,2.2,0.5c0.6,0.3,1.1,0.8,1.5,1.4c0.4,0.6,0.5,1.3,0.5,2.1
			c0,0.8-0.2,1.5-0.5,2.1c-0.4,0.6-0.9,1.1-1.5,1.4c-0.6,0.3-1.4,0.5-2.2,0.5h-3.3v-7.9C-1159.7-896.3-1156.3-896.3-1156.3-896.3z
			 M-1157.7-890h1.4c0.4,0,0.8-0.1,1.1-0.3s0.6-0.5,0.8-0.8c0.2-0.4,0.3-0.8,0.3-1.2c0-0.5-0.1-0.9-0.3-1.2
			c-0.2-0.4-0.5-0.6-0.8-0.8c-0.3-0.2-0.7-0.3-1.1-0.3h-1.3V-890z"/>
		<path id="path28" d="M-1149-894.7v1.6h3.8v1.6h-3.8v1.6h4.3v1.6h-6.3v-7.9h6.2v1.6C-1144.8-894.7-1149-894.7-1149-894.7z"/>
		<path id="path30" d="M-1139.7-894.7v6.3h-2v-6.3h-2.4v-1.6h6.8v1.6H-1139.7z"/>
		<path id="path32" d="M-1135.5-889.8l-0.6,1.5h-2.1l3.4-7.9h2.1l3.3,7.9h-2.1l-0.6-1.5H-1135.5L-1135.5-889.8z M-1133.8-894.3
			l-1.2,2.9h2.3L-1133.8-894.3z"/>
		<path id="path34" d="M-1128.6-888.4v-7.9h2v7.9H-1128.6z"/>
		<path id="path36" d="M-1119.7-890.1v1.7h-5.4v-7.9h2v6.2H-1119.7z"/>
		<path id="path38" d="M-1115.6-896.4c0.6,0,1.1,0.1,1.7,0.2c0.6,0.2,1,0.4,1.5,0.6l-0.8,1.6c-0.4-0.2-0.9-0.4-1.3-0.6
			c-0.5-0.2-0.9-0.2-1.2-0.2c-0.3,0-0.5,0-0.6,0.1c-0.2,0.1-0.2,0.2-0.2,0.4c0,0.3,0.1,0.4,0.4,0.6c0.2,0.1,0.6,0.3,1.2,0.4
			c0.6,0.2,1,0.3,1.4,0.5c0.4,0.2,0.7,0.4,0.9,0.7c0.3,0.3,0.4,0.7,0.4,1.3c0,0.5-0.1,1-0.4,1.3c-0.3,0.4-0.7,0.6-1.1,0.8
			s-1,0.3-1.6,0.3c-0.7,0-1.3-0.1-1.9-0.3c-0.6-0.2-1.2-0.5-1.7-0.9l0.8-1.6c0.4,0.3,0.9,0.6,1.4,0.9c0.5,0.2,1,0.3,1.4,0.3
			c0.3,0,0.6-0.1,0.8-0.2c0.2-0.1,0.3-0.3,0.3-0.5c0-0.3-0.1-0.5-0.4-0.6c-0.3-0.1-0.6-0.3-1.2-0.4c-0.5-0.2-1-0.3-1.3-0.5
			c-0.3-0.2-0.7-0.4-0.9-0.7c-0.3-0.3-0.4-0.7-0.4-1.2c0-0.5,0.1-0.9,0.4-1.3c0.3-0.4,0.6-0.6,1.1-0.8
			C-1116.8-896.3-1116.3-896.4-1115.6-896.4L-1115.6-896.4z"/>
	</g>
</g>
</svg>
